HIERARCHY
ROOT hip
{
	OFFSET 0.000000 0.000000 0.000000 
	CHANNELS 6 Xposition Yposition Zposition Xrotation Zrotation Yrotation
	JOINT abdomen
	{
		OFFSET 0.000000 3.402643 0.000000 
		CHANNELS 3 Xrotation Zrotation Yrotation
		JOINT chest
		{
			OFFSET 0.000000 8.438565 -0.680529 
			CHANNELS 3 Xrotation Zrotation Yrotation
			JOINT neck
			{
				OFFSET 0.000000 10.207942 -0.272212 
				CHANNELS 3 Xrotation Zrotation Yrotation
				JOINT head
				{
					OFFSET 0.000000 3.130431 0.000000 
					CHANNELS 3 Xrotation Zrotation Yrotation
					End Site
					{
						OFFSET 0.000000 3.130435 0.000000 
					}
				}
			}
			JOINT lCollar
			{
				OFFSET 3.470700 6.669187 -0.816635 
				CHANNELS 3 Yrotation Zrotation Xrotation
				JOINT lShldr
				{
					OFFSET 3.198488 0.000000 0.000000 
					CHANNELS 3 Zrotation Yrotation Xrotation
					JOINT lForeArm
					{
						OFFSET 10.139888 0.000000 0.000000 
						CHANNELS 3 Yrotation Zrotation Xrotation
						JOINT lHand
						{
							OFFSET 8.370511 0.000000 0.000000 
							CHANNELS 3 Zrotation Yrotation Xrotation
							End Site
							{
								OFFSET 4.083176 0.000000 0.000000 
							}
						}
					}
				}
			}
			JOINT rCollar
			{
				OFFSET -3.470700 6.669187 -0.816635 
				CHANNELS 3 Yrotation Zrotation Xrotation
				JOINT rShldr
				{
					OFFSET -3.198488 0.000000 0.000000 
					CHANNELS 3 Zrotation Yrotation Xrotation
					JOINT rForeArm
					{
						OFFSET -10.139888 0.000000 0.000000 
						CHANNELS 3 Yrotation Zrotation Xrotation
						JOINT rHand
						{
							OFFSET -8.370511 0.000000 0.000000 
							CHANNELS 3 Zrotation Yrotation Xrotation
							End Site
							{
								OFFSET -4.083176 0.000000 0.000000 
							}
						}
					}
				}
			}
		}
	}
	JOINT lThigh
	{
		OFFSET 5.308129 -1.633274 1.361059 
		CHANNELS 3 Xrotation Zrotation Yrotation
		JOINT lShin
		{
			OFFSET -2.041588 -20.007561 0.000000 
			CHANNELS 3 Xrotation Zrotation Yrotation
			JOINT lFoot
			{
				OFFSET 0.000000 -19.190928 -1.224953 
				CHANNELS 3 Xrotation Yrotation Zrotation
				End Site
				{
					OFFSET 0.000000 -2.449906 4.627600 
				}
			}
		}
	}
	JOINT rThigh
	{
		OFFSET -5.308129 -1.633274 1.361059 
		CHANNELS 3 Xrotation Zrotation Yrotation
		JOINT rShin
		{
			OFFSET 2.041588 -20.007561 0.000000 
			CHANNELS 3 Xrotation Zrotation Yrotation
			JOINT rFoot
			{
				OFFSET 0.000000 -19.190928 -1.224953 
				CHANNELS 3 Xrotation Yrotation Zrotation
				End Site
				{
					OFFSET 0.000000 -2.449906 4.627600 
				}
			}
		}
	}
}
MOTION
Frames: 10
Frame Time: 0.016667
-0.043793 48.301258 2.226298 4.499278 -1.091145 -3.955848 0.000000 0.000000 0.000000 -7.144897 1.913996 -0.478575 -10.034505 -1.947278 -4.436337 5.048911 -2.015433 -4.436684 -3.012890 9.989794 0.197171 -21.348318 6.096383 -40.309345 -22.629765 -0.909206 2.577843 9.485473 13.770235 33.241344 2.883702 -9.834467 0.189263 20.051945 8.130430 -56.122341 14.334527 1.022351 2.507299 -15.395081 -0.721496 25.840683 -11.454800 10.937161 2.688164 29.083813 -3.452157 3.732182 -21.072641 0.058486 -11.406043 -12.478453 -11.677603 -3.088736 27.565687 3.544527 3.566115 -8.843623 -0.707624 8.177150 
-0.039012 48.306412 2.222648 4.448007 -1.071735 -3.897262 0.000000 0.000000 0.000000 -7.056441 1.884703 -0.468818 -10.031651 -1.966647 -4.475379 5.030333 -2.005563 -4.485480 -3.012890 9.989794 0.197171 -21.353901 5.971344 -40.402500 -22.512384 -0.909950 2.571017 9.463352 13.757383 33.592052 2.883702 -9.834467 0.189263 20.028296 8.109641 -56.214237 14.275982 1.019787 2.507954 -15.339088 -0.550230 25.996170 -11.411241 10.913096 2.679459 29.051991 -3.456559 3.685175 -21.023510 0.059955 -11.403155 -12.389203 -11.715248 -3.089670 27.497440 3.544646 3.541784 -8.831096 -0.698587 8.181055 
-0.022399 48.315540 2.227746 4.268161 -1.032858 -3.819147 0.000000 0.000000 0.000000 -6.860494 1.845644 -0.459061 -10.020450 -1.976330 -4.494898 5.090295 -2.005455 -4.524519 -3.004806 9.979548 0.206778 -21.405754 5.671707 -40.638840 -22.317244 -0.901183 2.574636 9.511656 13.862803 34.219395 2.887084 -9.833484 0.208483 20.018814 8.060330 -56.282108 14.285739 1.020215 2.507845 -15.339885 -0.526980 26.080927 -11.201633 10.810966 2.648233 29.000912 -3.469839 3.676028 -21.009184 0.038884 -11.336653 -12.134895 -11.812390 -3.182121 27.385227 3.563716 3.586792 -8.807137 -0.715423 8.161958 
-0.005787 48.324661 2.232844 4.078020 -0.984227 -3.740856 0.000000 0.000000 0.000000 -6.664560 1.806585 -0.449303 -10.008132 -1.995720 -4.524518 5.140149 -2.005374 -4.553798 -3.006522 9.979036 0.216383 -21.449184 5.364609 -40.872387 -22.121666 -0.902159 2.578225 9.571792 13.963223 34.853058 2.898577 -9.842721 0.218092 20.004011 8.002875 -56.349945 14.295496 1.020642 2.507736 -15.336544 -0.492626 26.172808 -10.994011 10.720487 2.618345 28.912970 -3.458040 3.665841 -20.974623 -0.009356 -11.319578 -11.860724 -11.909065 -3.285484 27.285152 3.554516 3.654846 -8.791483 -0.705707 8.187624 
0.003839 48.327560 2.228565 3.988690 -0.964748 -3.731089 0.000000 0.000000 0.000000 -6.566520 1.796822 -0.439543 -10.011358 -1.976382 -4.475379 5.175967 -1.986039 -4.504996 -3.006522 9.979036 0.216383 -21.482271 5.188124 -41.049335 -21.994530 -0.902544 2.571489 9.647671 14.007030 35.177914 2.898577 -9.842721 0.218092 20.003996 8.083899 -56.425732 14.285739 1.020215 2.507845 -15.384768 -0.491197 26.297735 -10.896914 10.672189 2.573213 28.893486 -3.472429 3.712448 -20.952877 0.001415 -11.345897 -11.777318 -11.962798 -3.297068 27.254622 3.554369 3.681825 -8.766180 -0.722696 8.179117 
0.013466 48.330456 2.224284 3.898892 -0.935513 -3.731087 0.000000 0.000000 0.000000 -6.458646 1.777294 -0.429784 -10.014218 -1.957015 -4.436339 5.221583 -1.966699 -4.455859 -3.006522 9.979036 0.216383 -21.520744 5.018641 -41.229252 -21.867250 -0.906601 2.573785 9.719598 14.065702 35.495621 2.898577 -9.842721 0.218092 20.006187 8.151662 -56.504494 14.275982 1.019787 2.507954 -15.420168 -0.482815 26.429682 -10.800497 10.634440 2.547413 28.854120 -3.472520 3.715284 -20.917597 0.020890 -11.332675 -11.684427 -11.996276 -3.317587 27.223400 3.554395 3.728268 -8.759783 -0.710150 8.206252 
0.017178 48.327309 2.215224 3.768162 -1.003626 -3.818970 0.000000 0.000000 0.000000 -6.284160 1.865177 -0.449299 -10.009766 -1.918245 -4.368014 5.259454 -1.986380 -4.377782 -3.008238 9.978524 0.227680 -21.554455 4.981915 -41.422752 -21.739973 -0.910654 2.576069 9.600883 14.186670 35.887032 2.890464 -9.832500 0.227703 19.945091 8.247230 -56.419319 14.256467 1.018933 2.508171 -15.487768 -0.567290 26.326347 -10.671553 10.690914 2.577747 28.885679 -3.461234 3.735075 -20.924654 0.034075 -11.369882 -11.595867 -11.936877 -3.283553 27.261471 3.554156 3.769874 -8.719754 -0.695096 8.180287 
0.020890 48.324158 2.206164 3.637460 -1.071735 -3.897262 0.000000 0.000000 0.000000 -6.099890 1.943294 -0.468812 -10.005219 -1.879466 -4.299363 5.296930 -2.006088 -4.289947 -3.019760 9.987739 0.237282 -21.580837 4.951509 -41.614498 -21.603518 -0.900910 2.569436 9.484443 14.310030 36.277969 2.892155 -9.832007 0.238980 19.878813 8.334807 -56.335522 14.246709 1.018506 2.508280 -15.546331 -0.656337 26.223175 -10.534188 10.739015 2.618726 28.947012 -3.437446 3.726222 -20.971388 0.041176 -11.401129 -11.518403 -11.879068 -3.259095 27.299177 3.554119 3.821236 -8.696780 -0.680069 8.176110 
0.022841 48.329067 2.205660 3.483653 -1.091145 -3.955848 0.000000 0.000000 0.000000 -5.904897 1.982355 -0.468807 -9.989056 -1.860132 -4.240799 5.322733 -1.986762 -4.231385 -3.021477 9.987224 0.246886 -21.565382 4.968662 -41.729027 -21.466482 -0.904534 2.571858 9.173445 14.360780 36.716408 2.893845 -9.831514 0.248590 19.746861 8.003664 -55.765884 14.393073 1.024914 2.506642 -15.300184 -0.959166 25.621849 -10.337297 10.746904 2.564005 28.889244 -3.461964 3.831609 -20.939564 0.024875 -11.398450 -11.361288 -11.868196 -3.254880 27.267323 3.553879 3.887032 -8.663287 -0.698485 8.155994 
0.024792 48.333973 2.205156 3.339652 -1.110550 -4.014431 0.000000 0.000000 0.000000 -5.710167 2.011648 -0.478563 -9.983330 -1.831053 -4.181918 5.358342 -1.967432 -4.172489 -3.023195 9.986708 0.256490 -21.557241 4.989390 -41.854836 -21.319830 -0.904163 2.565340 8.872145 14.411831 37.158409 2.893845 -9.831514 0.248590 19.616951 7.673965 -55.208420 14.539863 1.021562 2.504987 -15.044806 -1.267107 25.029959 -10.141664 10.746502 2.548990 28.813597 -3.457516 3.906470 -20.916653 0.004340 -11.398731 -11.216167 -11.859846 -3.240801 27.254383 3.568657 3.927895 -8.612950 -0.682627 8.130164 
